<?xml version="1.0" standalone="no"?>
<!DOCTYPE svg PUBLIC "-//W3C//DTD SVG 20010904//EN"
 "http://www.w3.org/TR/2001/REC-SVG-20010904/DTD/svg10.dtd">
<svg version="1.0" xmlns="http://www.w3.org/2000/svg"
 width="300.000000pt" height="48.000000pt" viewBox="0 0 300.000000 48.000000"
 preserveAspectRatio="xMidYMid meet">
<metadata>
Created by potrace 1.10, written by Peter Selinger 2001-2011
</metadata>
<g transform="translate(0.000000,48.000000) scale(0.050000,-0.050000)"
fill="#e67e22" stroke="none">
<path d="M701 755 c-124 -113 -231 -205 -238 -205 -27 -1 -123 -98 -123 -125
0 -15 -23 -50 -52 -78 -67 -68 -40 -97 66 -69 72 20 188 118 208 178 4 12 100
121 213 242 113 120 205 229 205 240 0 53 -68 8 -279 -183z"/>
<path d="M962 722 c-137 -36 -38 -323 111 -322 29 0 22 12 -28 52 -75 59 -133
158 -117 200 19 49 273 26 337 -31 34 -30 -27 -141 -77 -141 -26 0 -48 -9 -48
-20 0 -11 19 -20 41 -20 48 0 41 -46 -24 -154 -69 -113 -174 -99 -206 26 -7
27 -21 44 -32 37 -60 -37 44 -169 132 -169 87 0 142 50 187 170 31 81 49 102
95 113 l57 12 -56 3 c-49 2 -55 8 -43 47 20 68 38 78 94 57 37 -14 61 -12 88
9 34 25 31 28 -38 28 -61 1 -75 8 -75 41 0 41 -51 57 -64 19 -4 -13 -34 -11
-86 7 -112 39 -192 50 -248 36z"/>
<path d="M2223 673 c-12 -14 -44 -98 -70 -185 -26 -87 -54 -174 -62 -193 -10
-22 -7 -35 7 -35 13 0 29 16 36 35 7 19 29 59 49 88 45 65 48 91 6 56 -24 -20
-21 0 12 83 70 173 76 217 22 151z"/>
<path d="M4643 615 c-13 -13 -23 -39 -23 -59 0 -20 -13 -36 -30 -36 -34 0 -41
-33 -10 -43 14 -5 10 -42 -9 -106 -16 -55 -25 -103 -20 -108 15 -16 109 35
109 59 0 16 -9 16 -30 -2 -37 -31 -39 -5 -9 105 17 62 30 75 75 78 47 2 48 4
9 11 -51 10 -53 14 -25 66 23 44 -3 69 -37 35z"/>
<path d="M5314 580 c-17 -46 -35 -60 -75 -60 -29 0 -68 -16 -86 -37 -48 -53
-40 -76 10 -31 24 21 37 27 29 13 -8 -14 -6 -25 5 -25 10 0 24 15 32 33 29 76
53 -6 29 -101 -28 -112 -17 -129 53 -83 29 19 47 39 41 45 -6 7 -25 0 -42 -14
-36 -30 -37 -24 -8 91 19 74 31 89 70 89 56 0 59 -24 18 -140 -36 -103 -36
-100 -2 -100 40 0 81 54 49 64 -19 7 -17 30 9 98 39 102 43 135 13 105 -44
-44 -118 -8 -98 46 24 63 24 67 -3 67 -12 0 -32 -27 -44 -60z"/>
<path d="M5763 615 c-13 -13 -23 -39 -23 -59 0 -20 -13 -36 -30 -36 -34 0 -41
-33 -10 -43 14 -5 10 -42 -9 -106 -16 -55 -25 -103 -20 -108 14 -14 109 41
109 63 0 10 -13 8 -30 -6 -37 -31 -39 -5 -9 105 16 56 32 76 65 77 34 2 36 5
9 12 -41 10 -42 16 -15 66 23 44 -3 69 -37 35z"/>
<path d="M2941 532 c-14 -18 -21 -32 -14 -32 6 0 -20 -87 -58 -194 -75 -211
-79 -226 -49 -226 11 0 30 41 42 90 20 79 30 90 76 90 66 0 102 33 102 92 0
25 11 49 25 55 17 7 15 10 -5 11 -17 1 -45 34 -62 74 -27 62 -34 67 -57 40z
m59 -190 c0 -40 -50 -70 -83 -50 -11 7 -5 28 15 50 44 48 68 48 68 0z"/>
<path d="M1432 523 c-6 -9 -19 -57 -31 -106 -11 -50 -25 -105 -32 -124 -29
-74 32 -27 67 52 21 47 54 99 75 115 21 17 30 19 22 5 -9 -14 -7 -25 4 -25 16
0 43 45 43 72 0 29 -64 -1 -100 -47 -39 -50 -41 -38 -8 45 13 31 -22 43 -40
13z"/>
<path d="M1807 517 c-21 -27 -87 -209 -87 -241 0 -27 40 -18 40 9 1 14 18 48
40 75 43 55 52 90 18 69 -15 -10 -15 0 1 30 29 52 19 98 -12 58z"/>
<path d="M1873 503 c-40 -43 -44 -77 -6 -46 20 17 17 -5 -9 -82 -35 -103 -25
-154 22 -125 19 12 19 19 0 30 -19 12 -12 44 27 130 66 143 50 186 -34 93z"/>
<path d="M2253 503 c-18 -20 -28 -41 -23 -47 6 -5 -3 -42 -20 -82 -38 -92 -38
-134 0 -134 22 0 27 13 19 45 -7 28 8 81 39 140 52 96 43 142 -15 78z"/>
<path d="M2506 515 c-10 -14 -30 -64 -44 -112 -14 -48 -30 -100 -36 -115 -14
-37 42 -37 72 0 18 22 18 30 -1 36 -19 7 -17 31 11 104 36 94 35 136 -2 87z"/>
<path d="M2696 505 c-53 -62 -70 -100 -30 -68 41 33 41 36 5 -82 -16 -52 -21
-95 -11 -95 26 0 84 117 70 140 -6 10 2 46 20 79 36 71 0 88 -54 26z"/>
<path d="M2802 488 c-34 -28 -62 -61 -62 -73 0 -12 18 -5 40 15 48 43 49 37
10 -57 -38 -92 -38 -133 1 -133 22 0 28 12 19 39 -10 33 18 113 86 246 16 33
-36 12 -94 -37z"/>
<path d="M3113 505 c-49 -189 -57 -228 -47 -238 6 -6 30 28 53 75 47 99 49
105 19 87 -16 -10 -16 -3 0 27 12 23 22 51 22 63 0 35 -37 24 -47 -14z"/>
<path d="M3205 509 c-25 -17 -45 -41 -45 -53 0 -13 11 -12 30 4 24 20 30 20
30 -2 0 -19 6 -20 22 -4 45 45 14 91 -37 55z"/>
<path d="M3828 517 c-12 -15 -32 -66 -46 -114 -14 -48 -30 -100 -36 -115 -14
-37 17 -35 65 4 31 24 32 29 6 21 -37 -11 -26 55 22 145 28 53 19 99 -11 59z"/>
<path d="M3953 517 c-80 -46 -126 -257 -56 -257 73 0 153 148 129 239 -12 46
-21 49 -73 18z m33 -108 c-3 -31 -23 -75 -45 -97 l-41 -41 0 42 c0 67 43 169
67 161 13 -5 21 -34 19 -65z"/>
<path d="M4108 517 c-12 -15 -32 -66 -46 -114 -14 -48 -30 -100 -36 -115 -5
-15 -3 -28 7 -28 25 0 89 120 76 141 -6 10 -1 37 11 60 28 50 18 95 -12 56z"/>
<path d="M4170 480 c-31 -33 -52 -65 -45 -72 6 -6 22 8 35 32 36 68 44 34 10
-46 -37 -89 -39 -161 -5 -149 14 5 22 28 19 51 -4 24 12 85 35 136 59 134 46
147 -49 48z"/>
<path d="M4326 515 c-10 -14 -30 -64 -44 -112 -14 -48 -30 -100 -36 -115 -14
-37 42 -37 72 0 18 22 18 30 -1 36 -19 7 -17 31 11 104 36 94 35 136 -2 87z"/>
<path d="M5080 489 c-11 -29 -20 -68 -20 -87 0 -19 -6 -42 -14 -49 -23 -23
-27 -93 -5 -93 24 0 62 88 69 160 3 28 12 66 20 85 9 21 5 35 -8 35 -13 0 -32
-23 -42 -51z"/>
<path d="M1609 472 c-88 -135 -39 -283 58 -175 53 58 38 75 -19 21 l-51 -48 6
59 c5 44 20 62 57 71 36 9 50 25 50 61 0 67 -59 74 -101 11z"/>
<path d="M2013 495 c-40 -30 -93 -171 -79 -209 16 -40 76 -31 117 19 21 25 25
34 9 20 -27 -24 -100 -35 -100 -15 0 5 14 45 32 88 33 84 88 125 88 66 1 -28
4 -29 19 -5 36 58 -22 82 -86 36z"/>
<path d="M2589 465 c-6 -30 -24 -89 -39 -130 -15 -41 -19 -75 -10 -75 24 0
102 140 89 161 -6 10 -1 36 11 59 17 32 15 40 -9 40 -17 0 -35 -24 -42 -55z"/>
<path d="M3279 435 c-68 -151 -24 -240 68 -138 53 58 38 75 -19 21 l-51 -48 6
60 c5 46 18 62 57 67 59 8 79 34 65 85 -18 69 -84 44 -126 -47z"/>
<path d="M3464 479 c-54 -50 -55 -63 -4 -109 53 -48 51 -63 -15 -81 -40 -11
-45 -18 -21 -23 93 -23 148 69 73 122 -26 18 -38 42 -30 61 14 37 66 41 80 6
10 -25 52 15 53 50 0 31 -94 13 -136 -26z"/>
<path d="M3626 470 l-56 -50 58 -48 57 -48 -57 -31 c-50 -27 -52 -32 -16 -32
86 -2 126 77 62 123 -44 32 -51 46 -32 68 27 33 87 38 66 5 -8 -13 -3 -19 14
-13 15 5 31 24 34 43 10 51 -65 41 -130 -17z"/>
<path d="M4406 470 l-56 -50 58 -48 57 -48 -57 -31 c-50 -27 -52 -32 -16 -32
86 -2 126 77 62 123 -44 32 -51 46 -32 68 27 33 78 37 78 7 0 -12 9 -16 20 -9
11 7 20 25 20 41 0 45 -72 34 -134 -21z"/>
<path d="M4883 493 c-102 -122 -98 -309 4 -196 46 51 41 77 -7 33 -47 -43 -50
-32 -13 56 28 67 86 127 105 109 6 -7 1 -31 -12 -55 -58 -109 -38 -203 32
-149 31 23 31 27 4 17 -35 -12 -20 88 27 177 23 44 -104 52 -140 8z"/>
<path d="M5527 473 l-55 -48 57 -53 c32 -29 54 -55 49 -58 -4 -3 -30 -16 -58
-29 -46 -20 -46 -22 -8 -24 80 -2 126 75 69 118 -30 23 -43 48 -35 68 14 36
74 46 74 12 0 -12 9 -16 20 -9 11 7 20 25 20 41 0 44 -71 34 -133 -18z"/>
<path d="M5864 489 c-55 -39 -57 -101 -4 -129 54 -29 50 -48 -15 -74 -47 -19
-49 -22 -13 -24 80 -4 126 75 71 120 -28 22 -43 50 -36 68 13 34 73 41 73 9 0
-12 9 -16 20 -9 33 21 22 70 -16 70 -19 0 -55 -14 -80 -31z"/>
<path d="M175 479 c-19 -12 -35 -33 -35 -48 0 -15 -31 -46 -70 -68 -44 -26
-70 -57 -70 -83 0 -26 26 -57 70 -83 39 -22 70 -53 70 -68 0 -84 198 -118 285
-49 28 22 80 40 114 40 136 0 196 100 86 142 -30 11 -60 30 -68 42 -8 14 -32
8 -70 -19 -193 -137 -407 -55 -247 95 90 84 39 160 -65 99z"/>
</g>
</svg>
